/* XPM */
static char *ea18ef8ed7684554a82f530fd9b8eb82n641UBexz8e00R3L[] = {
/* columns rows colors chars-per-pixel */
"32 32 2 1 ",
"  c black",
". c #2ECA2F",
/* pixels */
"................................",
"................................",
"................................",
"................................",
"................................",
"................................",
"................................",
"...                  ...........",
".... ...........................",
".... ...........................",
".... ...........................",
".... ...........................",
".... ...........................",
".... ...........................",
".... ...........................",
"....              ..............",
".... ...........................",
".... ...........................",
".... ...........................",
".... ...........................",
".... ...........................",
".... ...........................",
".... ...........................",
"....                      ......",
"................................",
"................................",
"................................",
"................................",
"................................",
"................................",
"................................",
"................................"
};
