/* XPM */
static char *_6cdc00f1a674e1df86bec5d0fb4f568dyenIAbeF0hwE4zX[] = {
/* columns rows colors chars-per-pixel */
"32 32 2 1 ",
"  c black",
". c #8E1818",
/* pixels */
"................................",
"................................",
"................................",
"................................",
"................................",
"................................",
"......        ..................",
".....  .......   ...............",
"..... ...........   ............",
"..... ..........................",
"..... ..........................",
"...... .........................",
"...... .........................",
"....... ........................",
"....... ........................",
"........              ..........",
"......................    ......",
".......................... .....",
".......................... .....",
".......................... .....",
".......................... .....",
"......................... ......",
"......................... ......",
"........................ .......",
"........................ .......",
"....................... ........",
"...................... .........",
"........   .........  ..........",
"..........          ............",
"................................",
"................................",
"................................"
};
