/* XPM */
static char *_23cb3e264ba4828dc207da743f3f2b857cwJcHLkTlQFmUA[] = {
/* columns rows colors chars-per-pixel */
"32 32 2 1 ",
"  c black",
". c #275DD3",
/* pixels */
"................................",
"................................",
"................................",
"................................",
"................................",
"................................",
"................................",
"................................",
".......  ....... ...............",
".......   ...... ...............",
".......    ..... ...............",
"......   . .....  ..............",
"......   .   ...  ..............",
"......   ..   ..  ..............",
"......   ...  ... ..............",
".......  ....   .  .............",
"........  ....     .............",
"........  .....    .............",
"........  .......  .............",
"........  ......................",
"........ .......................",
"................................",
"................................",
"................................",
"................................",
"................................",
"................................",
"................................",
"................................",
"................................",
"................................",
"................................"
};
