/* XPM */
static char *d2700eedf37f4926b0cb9c5b32496c2bU7R4P4U7lcTqAx1M[] = {
/* columns rows colors chars-per-pixel */
"32 32 2 1 ",
"  c black",
". c #DFE625",
/* pixels */
"................................",
"................................",
"................................",
"................................",
"................................",
"................................",
"................................",
"...................  ...........",
"................... ............",
"......  ........... ............",
"....... ..... .... .............",
"........ ... . ... .............",
"........ ... . ... .............",
"......... .. .. .. .............",
"......... .. .. .. .............",
"..........  .... . .............",
"..........  ....   .............",
"........... .....  .............",
"................................",
"................................",
"................................",
"................................",
"................................",
"................................",
"................................",
"................................",
"................................",
"................................",
"................................",
"................................",
"................................",
"................................"
};
